<svg xmlns="http://www.w3.org/2000/svg" viewBox="0 0 281.66 87.93"><title>Ativo 2</title><polygon points="156.73 46.32 168.85 1.05 180.92 1.05 170.85 37.87 189.85 37.87 187.59 46.32 156.73 46.32" style="fill:#002c60;fill-rule:evenodd"></polygon><polygon points="192.28 46.32 204.42 1.05 237.04 1.05 234.8 9.41 214.29 9.41 211.71 19.19 230.48 19.19 228.34 28.01 209.52 28.01 206.82 37.93 227.28 37.93 225.04 46.32 192.4 46.32 192.28 46.32" style="fill:#002c60;fill-rule:evenodd"></polygon><polygon points="244.54 46.32 239.47 1.05 250.51 1.05 254.22 34.81 270.19 1.05 281.66 1.05 258.62 46.32 244.54 46.32" style="fill:#002c60;fill-rule:evenodd"></polygon><polygon points="0 46.32 0 1.12 30.11 1.12 30.11 12.84 16.2 12.84 16.2 18.25 28.51 18.25 28.51 29.98 15.96 29.98 15.96 46.32 0 46.32" style="fill:#002c60;fill-rule:evenodd"></polygon><path d="M80.45,23.8A23.67,23.67,0,0,1,78.68,33a23.23,23.23,0,0,1-5.18,7.66,24.39,24.39,0,0,1-7.82,5.15,24.07,24.07,0,0,1-18.34,0,23.47,23.47,0,0,1-7.72-5.16,23,23,0,0,1-5.24-7.69,23.79,23.79,0,0,1-1.79-9.14,23.57,23.57,0,0,1,1.78-9.15A23.08,23.08,0,0,1,39.62,7a23.31,23.31,0,0,1,7.72-5.16,24.11,24.11,0,0,1,18.38,0A23.36,23.36,0,0,1,73.5,7a22.93,22.93,0,0,1,5.16,7.65,23.9,23.9,0,0,1,1.79,9.17M56.52,32.17A6.74,6.74,0,0,0,61.8,29.8a8.78,8.78,0,0,0,2.08-6,8.71,8.71,0,0,0-2.11-6,6.76,6.76,0,0,0-5.25-2.4,6.68,6.68,0,0,0-5.27,2.39,8.78,8.78,0,0,0-2.09,6,8.74,8.74,0,0,0,2.06,6,6.71,6.71,0,0,0,5.3,2.36" style="fill:#002c60;fill-rule:evenodd"></path><path d="M100.36,21.55h1.72a7.46,7.46,0,0,0,4.37-1,3.74,3.74,0,0,0,1.38-3.21,4.52,4.52,0,0,0-1.29-3.64,6.83,6.83,0,0,0-4.32-1.08h-1.86ZM85,46.32V1.12h14.7a63.19,63.19,0,0,1,11.52.69c6.27,1.27,12.11,6.56,12.16,13.39,0,6.45-3.45,11.87-8.87,12.92l11.41,18.2H107.83l-7.47-14.6v14.6Z" style="fill:#002c60;fill-rule:evenodd"></path><polygon points="135.01 46.32 135.01 15.46 125.83 15.46 125.83 1.12 160.22 1.12 160.22 15.46 151.07 15.46 151.07 46.32 135.01 46.32" style="fill:#002c60;fill-rule:evenodd"></polygon><path d="M171.33,52.17c-10.52,0-19.52,7.08-20.07,18A16.66,16.66,0,0,0,154,80.67a15.6,15.6,0,0,1-1.29-7.34c.48-9.58,8.26-15.81,17.36-15.81s16.24,6.23,15.75,15.81a15.69,15.69,0,0,1-7,12.67,17.81,17.81,0,0,0,10.75-15.86c.55-10.89-7.73-18-18.26-18" style="fill:#e3793e"></path><path d="M124.84,75l.62.5a12.44,12.44,0,0,0,7.68,3.17c1.24,0,3.24-.5,3.33-2.06s-1.56-1.7-2.69-1.93l-2.51-.46c-4.87-.88-8.84-3.77-8.54-9.2.46-8.23,8.21-12.82,15.75-12.82a19.77,19.77,0,0,1,10.82,3l-3.9,8.87a12.43,12.43,0,0,0-7.16-2.62c-1.1,0-2.74.42-2.82,1.84s1.48,1.47,2.44,1.7l2.81.65c5.27,1.19,9,4,8.64,9.92-.47,8.28-8.23,12.37-15.73,12.37a30.19,30.19,0,0,1-13.15-3.17Z" style="fill:#e3793e"></path><polygon points="198.82 79.7 209.27 79.7 204.27 87.38 187.76 87.38 197.12 52.48 206.13 52.48 198.82 79.7" style="fill:#e3793e"></polygon><path d="M220.6,81.32l-4,6.06H207l22.69-34.9h9.84l3.69,34.9h-9.6L233,81.32Zm11.16-18h-.09L225,74.37h7.5Z" style="fill:#e3793e"></path><path d="M271.23,87.38H260L255.12,74H255l-3.61,13.42h-9l9.36-34.9h13.46c6.85,0,11.18,3.29,9.2,10.74-1.32,4.81-5.1,9-10.25,9.86ZM256.6,68.13h.87c2.94,0,6.4-.56,7.42-4.35s-2.13-4.36-5.07-4.36h-.88Z" style="fill:#e3793e"></path></svg>